<?xml version="1.0" encoding="utf-8"?>
<!-- Generator: Adobe Illustrator 16.0.0, SVG Export Plug-In . SVG Version: 6.00 Build 0)  -->
<!DOCTYPE svg PUBLIC "-//W3C//DTD SVG 1.1//EN" "http://www.w3.org/Graphics/SVG/1.1/DTD/svg11.dtd">
<svg version="1.1" id="Layer_1" xmlns="http://www.w3.org/2000/svg" xmlns:xlink="http://www.w3.org/1999/xlink" x="0px" y="0px"
	 width="592.667px" height="290px" viewBox="16 34 592.667 290" enable-background="new 16 34 592.667 290" xml:space="preserve">
<g>
	<path fill="#DBDBDB" d="M162.004,299.469c0,8.25-6.75,15-15,15H40.175c-8.25,0-15-6.75-15-15V55.814c0-8.25,6.75-15,15-15h106.829
		c8.25,0,15,6.75,15,15V299.469z"/>
</g>
<g>
	<path fill="#FFFFFF" d="M37.897,40.81c-8.25,0-10.227,4.773-4.394,10.607l252.441,252.451c5.834,5.834,10.605,3.856,10.605-4.394
		V55.81c0-8.25-6.75-15-15-15H37.897z"/>
</g>
<g>
	<circle fill="#FFFFFF" cx="467.5" cy="174.016" r="133.189"/>
	<rect x="334.311" y="174.016" fill="#FFFFFF" width="133.189" height="133.189"/>
</g>
</svg>
